<svg width="136" height="25" viewBox="0 0 136 25" fill="none" xmlns="http://www.w3.org/2000/svg">
<path d="M11.88 2.7C11.784 3.108 11.676 3.42 11.556 3.636C11.436 3.828 11.208 4.092 10.872 4.428C10.728 4.38 10.524 4.344 10.26 4.32C9.996 4.272 9.732 4.236 9.468 4.212C9.156 4.188 8.82 4.164 8.46 4.14C7.524 4.02 6.72 4.152 6.048 4.536C5.376 4.92 4.824 5.448 4.392 6.12C3.912 6.864 3.672 7.752 3.672 8.784C3.672 9.24 3.72 9.684 3.816 10.116C3.912 10.548 4.044 10.908 4.212 11.196C4.38 11.484 4.596 11.784 4.86 12.096C5.124 12.384 5.412 12.636 5.724 12.852C6.06 13.068 6.432 13.212 6.84 13.284C7.248 13.356 7.704 13.32 8.208 13.176C8.592 13.056 8.964 12.876 9.324 12.636C9.636 12.444 9.948 12.18 10.26 11.844C10.596 11.508 10.884 11.076 11.124 10.548L13.788 11.448C13.788 11.784 13.704 12.132 13.536 12.492C13.392 12.828 13.212 13.164 12.996 13.5C12.78 13.812 12.564 14.1 12.348 14.364C12.132 14.628 11.952 14.844 11.808 15.012C11.64 15.228 11.328 15.48 10.872 15.768C10.44 16.032 9.984 16.236 9.504 16.38C9.048 16.524 8.604 16.62 8.172 16.668C7.74 16.692 7.344 16.692 6.984 16.668C6.504 16.62 5.856 16.452 5.04 16.164C4.248 15.876 3.54 15.42 2.916 14.796C2.412 14.292 2.004 13.716 1.692 13.068C1.404 12.42 1.176 11.784 1.008 11.16C0.84 10.512 0.732 9.912 0.684 9.36C0.66 8.808 0.66 8.376 0.684 8.064C0.708 7.272 0.816 6.54 1.008 5.868C1.2 5.196 1.44 4.584 1.728 4.032C2.04 3.456 2.388 2.964 2.772 2.556C3.156 2.124 3.552 1.764 3.96 1.476C4.368 1.236 4.752 1.032 5.112 0.864C5.496 0.696 5.856 0.564 6.192 0.467999C6.888 0.275999 7.704 0.179999 8.64 0.179999C9.6 0.155999 10.632 0.359999 11.736 0.791999C11.808 1.128 11.856 1.416 11.88 1.656C11.904 1.872 11.916 2.064 11.916 2.232C11.916 2.424 11.904 2.58 11.88 2.7ZM23.9926 4.032C24.3046 4.512 24.6046 5.064 24.8926 5.688C25.2046 6.288 25.4926 7.08 25.7566 8.064C26.0446 9.024 26.3326 10.236 26.6206 11.7C26.9086 13.14 27.2086 14.928 27.5206 17.064L25.4326 18L24.7126 15.66C24.0886 16.164 23.4766 16.536 22.8766 16.776C22.2766 16.992 21.7126 17.136 21.1846 17.208C20.6566 17.256 20.1886 17.268 19.7806 17.244C19.3726 17.196 19.0726 17.148 18.8806 17.1C18.6166 17.052 18.2686 16.872 17.8366 16.56C17.4286 16.224 17.0926 15.828 16.8286 15.372C16.5886 14.916 16.4446 14.412 16.3966 13.86C16.3486 13.308 16.4326 12.744 16.6486 12.168C16.9126 11.736 17.2006 11.328 17.5126 10.944C17.8246 10.56 18.1966 10.224 18.6286 9.936C19.0846 9.624 19.6126 9.36 20.2126 9.144C20.8366 8.904 21.5806 8.724 22.4446 8.604C22.3246 7.932 22.1926 7.464 22.0486 7.2C21.9286 6.936 21.8326 6.756 21.7606 6.66C21.6886 6.54 21.4846 6.384 21.1486 6.192C20.8126 5.976 20.3326 5.952 19.7086 6.12C19.4206 6.192 19.0606 6.348 18.6286 6.588C18.1966 6.828 17.7766 7.08 17.3686 7.344C16.9846 7.608 16.6366 7.848 16.3246 8.064C16.0366 8.28 15.8806 8.4 15.8566 8.424C15.7126 8.376 15.4966 8.244 15.2086 8.028C14.9206 7.788 14.4766 7.404 13.8766 6.876C14.6446 6.036 15.3766 5.364 16.0726 4.86C16.7926 4.332 17.4286 3.924 17.9806 3.636C18.5326 3.348 18.9886 3.156 19.3486 3.06C19.7086 2.94 19.9126 2.868 19.9606 2.844C20.1046 2.82 20.3206 2.808 20.6086 2.808C20.9206 2.784 21.2566 2.808 21.6166 2.88C22.0006 2.952 22.3966 3.072 22.8046 3.24C23.2126 3.408 23.6086 3.672 23.9926 4.032ZM21.0406 15.12C21.3046 15.144 21.5926 15.108 21.9046 15.012C22.1686 14.94 22.4806 14.832 22.8406 14.688C23.2246 14.544 23.6446 14.304 24.1006 13.968C23.9566 13.272 23.8246 12.756 23.7046 12.42C23.5846 12.06 23.4526 11.82 23.3086 11.7C23.1886 11.58 23.0326 11.556 22.8406 11.628C22.6726 11.676 22.4446 11.748 22.1566 11.844C21.7966 11.964 21.5206 12.072 21.3286 12.168C21.2326 12.216 21.1006 12.288 20.9326 12.384C20.7886 12.456 20.6446 12.576 20.5006 12.744C20.3566 12.888 20.2366 13.068 20.1406 13.284C20.0446 13.476 19.9966 13.692 19.9966 13.932C19.9966 14.196 20.0686 14.448 20.2126 14.688C20.3566 14.928 20.6326 15.072 21.0406 15.12ZM32.1545 3.78C32.5625 3.732 32.9345 3.768 33.2705 3.888C33.4385 3.96 33.6065 4.032 33.7745 4.104C33.8465 4.152 33.9545 4.296 34.0985 4.536C34.2665 4.776 34.4345 5.076 34.6025 5.436C34.7705 5.796 34.9385 6.18 35.1065 6.588C35.2745 6.972 35.4305 7.332 35.5745 7.668C35.6705 7.932 35.7785 8.196 35.8985 8.46C36.0185 8.7 36.1505 8.976 36.2945 9.288C36.4385 9.6 36.6065 9.924 36.7985 10.26C36.7745 10.236 36.8225 10.14 36.9425 9.972C37.0865 9.804 37.2305 9.624 37.3745 9.432C37.5185 9.24 37.6505 9.072 37.7705 8.928C37.9145 8.76 37.9745 8.688 37.9505 8.712C37.7585 8.952 37.7465 8.928 37.9145 8.64C38.1065 8.352 38.3825 7.98 38.7425 7.524C39.1025 7.044 39.4865 6.576 39.8945 6.12C40.3025 5.664 40.6385 5.388 40.9025 5.292C41.0945 5.244 41.3105 5.196 41.5505 5.148C41.7425 5.1 41.9705 5.076 42.2345 5.076C42.4985 5.052 42.7865 5.064 43.0985 5.112L43.3505 17.928C43.1585 18.168 42.9065 18.324 42.5945 18.396C42.3065 18.468 42.0065 18.504 41.6945 18.504C41.3345 18.504 40.9505 18.48 40.5425 18.432C40.5185 18.288 40.4825 17.988 40.4345 17.532C40.4105 17.052 40.3745 16.5 40.3265 15.876C40.2785 15.252 40.2185 14.604 40.1465 13.932C40.0985 13.236 40.0385 12.6 39.9665 12.024C39.9185 11.448 39.8705 10.98 39.8225 10.62C39.7985 10.236 39.7745 10.056 39.7505 10.08C39.5585 10.368 39.2825 10.8 38.9225 11.376C38.5625 11.928 38.1905 12.492 37.8065 13.068C37.4465 13.644 37.1105 14.148 36.7985 14.58C36.4865 14.988 36.2945 15.168 36.2225 15.12C36.1505 15.072 36.0425 14.892 35.8985 14.58C35.7545 14.268 35.5985 13.92 35.4305 13.536C35.2865 13.152 35.1425 12.78 34.9985 12.42C34.8785 12.036 34.7825 11.76 34.7105 11.592C34.5185 11.112 34.3385 10.644 34.1705 10.188C34.0265 9.708 33.9065 9.48 33.8105 9.504C33.7865 9.504 33.7265 9.6 33.6305 9.792C33.5585 9.984 33.4745 10.212 33.3785 10.476C33.3065 10.716 33.2225 10.968 33.1265 11.232C33.0305 11.472 32.9705 11.652 32.9465 11.772C32.9225 11.844 32.8505 12.072 32.7305 12.456C32.6345 12.816 32.5025 13.248 32.3345 13.752C32.1905 14.256 32.0345 14.796 31.8665 15.372C31.6985 15.924 31.5305 16.44 31.3625 16.92C31.2185 17.4 31.0745 17.796 30.9305 18.108C30.8105 18.42 30.7265 18.576 30.6785 18.576C30.5825 18.576 30.4745 18.54 30.3545 18.468C30.2345 18.42 30.0785 18.348 29.8865 18.252C29.6945 18.18 29.4545 18.048 29.1665 17.856L32.1545 3.78ZM54.4044 8.352C54.6924 8.832 54.9324 9.48 55.1244 10.296C55.3164 11.112 55.3644 11.952 55.2684 12.816C55.1964 13.656 54.9204 14.46 54.4404 15.228C53.9604 15.996 53.2044 16.572 52.1724 16.956C51.1404 17.34 50.1924 17.412 49.3284 17.172C48.4884 16.908 47.7564 16.476 47.1324 15.876C46.5084 15.276 46.0164 14.58 45.6564 13.788C45.3204 12.996 45.1524 12.252 45.1524 11.556C45.1284 10.308 45.3204 9.324 45.7284 8.604C46.1364 7.86 46.6044 7.296 47.1324 6.912C47.6604 6.528 48.1764 6.276 48.6804 6.156C49.1844 6.036 49.5324 5.964 49.7244 5.94C50.0844 5.892 50.4684 5.904 50.8764 5.976C51.3084 6.048 51.7404 6.18 52.1724 6.372C52.6044 6.564 53.0124 6.828 53.3964 7.164C53.7804 7.5 54.1164 7.896 54.4044 8.352ZM50.7324 14.04C50.8524 14.016 51.0204 13.932 51.2364 13.788C51.4524 13.62 51.6444 13.392 51.8124 13.104C52.0044 12.792 52.1364 12.42 52.2084 11.988C52.3044 11.556 52.2924 11.052 52.1724 10.476C52.0764 9.9 51.8844 9.456 51.5964 9.144C51.3084 8.832 51.0084 8.604 50.6964 8.46C50.3844 8.292 50.0964 8.196 49.8324 8.172C49.5684 8.148 49.4004 8.136 49.3284 8.136C49.0404 8.16 48.7524 8.28 48.4644 8.496C48.1764 8.64 47.9844 8.88 47.8884 9.216C47.7924 9.528 47.7324 9.864 47.7084 10.224C47.7084 10.56 47.7324 10.86 47.7804 11.124C47.8284 11.388 47.8764 11.676 47.9244 11.988C47.9964 12.3 48.1644 12.636 48.4284 12.996C48.6924 13.332 48.9684 13.584 49.2564 13.752C49.5684 13.92 49.8564 14.016 50.1204 14.04C50.3844 14.064 50.5884 14.064 50.7324 14.04ZM67.9056 4.176C68.0256 4.296 68.0976 4.488 68.1216 4.752C68.1456 4.992 68.1096 5.364 68.0136 5.868C67.5576 8.196 67.1976 10.044 66.9336 11.412C66.6936 12.78 66.5136 13.824 66.3936 14.544C66.3216 14.904 66.2616 15.192 66.2136 15.408C66.1896 15.624 66.1656 15.804 66.1416 15.948C66.1416 16.068 66.1296 16.176 66.1056 16.272C66.0816 16.344 66.0576 16.428 66.0336 16.524C66.0096 16.716 65.9376 17.088 65.8176 17.64C65.6976 18.192 65.5416 18.744 65.3496 19.296C65.1816 19.872 64.9776 20.424 64.7376 20.952C64.4976 21.48 64.2216 21.924 63.9096 22.284C63.2856 23.004 62.6136 23.52 61.8936 23.832C61.1736 24.144 60.5376 24.3 59.9856 24.3C59.4336 24.276 58.9896 24.24 58.6536 24.192C58.3176 24.168 57.9096 24.084 57.4296 23.94C56.5896 23.58 55.7856 23.184 55.0176 22.752C54.2496 22.32 53.5296 21.84 52.8576 21.312L55.4856 17.964C56.3736 18.876 57.2376 19.512 58.0776 19.872C58.9176 20.232 59.5176 20.424 59.8776 20.448C60.0696 20.52 60.3096 20.556 60.5976 20.556C60.8856 20.556 61.1616 20.52 61.4256 20.448C61.7136 20.376 61.9776 20.28 62.2176 20.16C62.4816 20.04 62.6736 19.884 62.7936 19.692C62.9856 19.452 63.1656 19.152 63.3336 18.792C63.4776 18.48 63.6216 18.096 63.7656 17.64C63.9096 17.16 64.0176 16.584 64.0896 15.912C63.6816 16.008 63.2856 16.056 62.9016 16.056C62.5416 16.056 62.2176 16.032 61.9296 15.984C61.6416 15.936 61.4016 15.888 61.2096 15.84C61.0416 15.768 60.9576 15.732 60.9576 15.732C60.4776 15.564 60.0576 15.312 59.6976 14.976C59.3376 14.616 59.0496 14.22 58.8336 13.788C58.6416 13.332 58.5216 12.864 58.4736 12.384C58.4256 11.88 58.4736 11.388 58.6176 10.908C58.7616 10.404 58.9896 9.972 59.3016 9.612C59.6136 9.228 59.9616 8.904 60.3456 8.64C60.7536 8.376 61.1616 8.172 61.5696 8.028C62.0016 7.884 62.3856 7.788 62.7216 7.74C62.7456 7.74 62.8776 7.728 63.1176 7.704C63.3576 7.656 63.6936 7.632 64.1256 7.632C64.3416 7.632 64.5576 7.644 64.7736 7.668C64.9896 7.668 65.2176 7.68 65.4576 7.704L66.1776 4.536C66.4896 4.416 66.7536 4.332 66.9696 4.284C67.1856 4.212 67.3656 4.164 67.5096 4.14C67.6776 4.116 67.8096 4.128 67.9056 4.176ZM64.4856 12.888C64.6056 12.672 64.6896 12.36 64.7376 11.952C64.7856 11.52 64.8336 11.196 64.8816 10.98C64.9056 10.884 64.8216 10.788 64.6296 10.692C64.4376 10.572 64.1976 10.5 63.9096 10.476C63.6216 10.452 63.3216 10.5 63.0096 10.62C62.6976 10.74 62.4336 10.98 62.2176 11.34C61.8816 11.916 61.8216 12.396 62.0376 12.78C62.2536 13.14 62.4816 13.344 62.7216 13.392C63.1296 13.512 63.4896 13.512 63.8016 13.392C64.1376 13.248 64.3656 13.08 64.4856 12.888ZM79.3688 9.972C79.4408 10.572 79.3928 11.028 79.2248 11.34C79.0568 11.628 78.9128 11.844 78.7928 11.988C78.6728 12.132 78.3488 12.288 77.8208 12.456C77.2928 12.624 76.6808 12.696 75.9848 12.672C75.9848 12.672 75.8888 12.66 75.6968 12.636C75.5048 12.612 75.2648 12.564 74.9768 12.492C74.7128 12.42 74.4128 12.312 74.0768 12.168C73.7408 12 73.4168 11.784 73.1048 11.52C72.9848 11.712 72.9488 11.952 72.9968 12.24C73.0688 12.528 73.1288 12.768 73.1768 12.96C73.2248 13.128 73.3808 13.308 73.6448 13.5C73.9088 13.668 74.2328 13.812 74.6168 13.932C74.9288 14.004 75.2528 14.04 75.5888 14.04C75.8768 14.04 76.1888 13.992 76.5248 13.896C76.8848 13.8 77.2328 13.608 77.5688 13.32L78.6128 15.3C78.4928 15.396 78.2648 15.564 77.9288 15.804C77.6168 16.02 77.2928 16.176 76.9568 16.272C76.5488 16.392 76.0568 16.476 75.4808 16.524C74.9288 16.572 74.3648 16.536 73.7888 16.416C73.5008 16.368 73.1648 16.26 72.7808 16.092C72.4208 15.9 72.0608 15.648 71.7008 15.336C71.3648 15 71.0528 14.604 70.7648 14.148C70.5008 13.668 70.3208 13.116 70.2248 12.492C70.1288 11.868 70.1288 11.232 70.2248 10.584C70.3208 9.936 70.5128 9.336 70.8008 8.784C71.0888 8.208 71.4728 7.704 71.9528 7.272C72.4328 6.816 72.9968 6.48 73.6448 6.264C74.3408 6 75.0608 5.94 75.8048 6.084C76.5488 6.204 77.2208 6.504 77.8208 6.984C78.2048 7.296 78.5408 7.716 78.8288 8.244C79.1408 8.772 79.3208 9.348 79.3688 9.972ZM76.8128 10.476C76.9568 10.212 76.9928 9.948 76.9208 9.684C76.8488 9.396 76.7288 9.156 76.5608 8.964C76.3208 8.7 76.0448 8.532 75.7328 8.46C75.4208 8.388 75.1568 8.364 74.9408 8.388C74.7248 8.436 74.5088 8.532 74.2928 8.676C74.0768 8.796 73.9328 8.916 73.8608 9.036C73.6928 9.324 73.6568 9.624 73.7528 9.936C73.8488 10.224 74.1608 10.452 74.6888 10.62C75.1448 10.764 75.5648 10.848 75.9488 10.872C76.3328 10.872 76.6208 10.74 76.8128 10.476ZM94.2531 17.748C94.1091 17.94 93.9651 18.096 93.8211 18.216C93.6771 18.336 93.5091 18.42 93.3171 18.468C93.1491 18.54 92.9451 18.54 92.7051 18.468C92.3691 18.372 92.1051 18.252 91.9131 18.108C91.7451 17.964 91.6011 17.808 91.4811 17.64C91.3611 17.472 91.2771 17.28 91.2291 17.064L90.9771 7.092L89.8251 6.876L89.6451 8.1C89.3811 9.54 89.0331 10.908 88.6011 12.204C88.1931 13.5 87.6291 14.64 86.9091 15.624C86.2131 16.608 85.3491 17.4 84.3171 18C83.2851 18.576 82.0371 18.9 80.5731 18.972L80.7171 15.372C82.0371 15.228 83.1171 14.796 83.9571 14.076C84.7971 13.356 85.4691 12.516 85.9731 11.556C86.4771 10.572 86.8491 9.552 87.0891 8.496C87.3531 7.44 87.5571 6.504 87.7011 5.688L87.8811 4.608L93.8931 4.752L94.2531 17.748ZM96.4657 5.616C97.3777 5.184 97.9777 4.932 98.2657 4.86C98.5777 4.764 98.7937 4.716 98.9137 4.716C99.1297 4.692 99.3337 4.824 99.5257 5.112C99.6217 5.376 99.7057 5.796 99.7777 6.372C99.8737 6.924 99.9697 7.776 100.066 8.928L103.342 4.824L105.07 6.12L102.262 10.656L107.77 14.796L105.466 16.632L101.65 13.788L100.642 13.176L100.534 17.208C100.15 17.472 99.8017 17.64 99.4897 17.712C99.2017 17.784 98.8897 17.688 98.5537 17.424C98.2177 15.504 97.9297 13.884 97.6897 12.564C97.4497 11.22 97.2457 10.116 97.0777 9.252C96.9337 8.364 96.8137 7.68 96.7177 7.2C96.6457 6.72 96.5857 6.36 96.5377 6.12C96.4897 5.88 96.4657 5.736 96.4657 5.688C96.4657 5.64 96.4657 5.616 96.4657 5.616ZM112.312 7.344C112.312 7.8 112.324 8.088 112.348 8.208C112.396 8.4 112.42 8.52 112.42 8.568C112.444 8.616 112.468 8.844 112.492 9.252C112.516 9.54 112.552 9.864 112.6 10.224C112.672 10.584 112.768 10.944 112.888 11.304C113.032 11.664 113.212 11.988 113.428 12.276C113.668 12.564 113.968 12.78 114.328 12.924C114.856 13.116 115.264 13.128 115.552 12.96C115.84 12.792 116.044 12.636 116.164 12.492C116.452 12.156 116.584 11.796 116.56 11.412C116.536 11.004 116.5 10.644 116.452 10.332C116.38 9.852 116.284 9.324 116.164 8.748C116.044 8.148 115.9 7.5 115.732 6.804L118.54 6.624C118.804 8.016 119.044 9.096 119.26 9.864C119.5 10.608 119.668 11.1 119.764 11.34C119.956 11.676 120.28 12.204 120.736 12.924C121.192 13.62 121.852 14.4 122.716 15.264C122.524 15.576 122.272 15.816 121.96 15.984C121.672 16.176 121.48 16.308 121.384 16.38C121.288 16.428 121.108 16.5 120.844 16.596C120.436 16.716 120.052 16.788 119.692 16.812C119.356 16.812 119.128 16.74 119.008 16.596C118.864 16.356 118.648 16.044 118.36 15.66C118.096 15.252 117.724 14.7 117.244 14.004C116.98 14.484 116.68 14.88 116.344 15.192C116.008 15.48 115.672 15.72 115.336 15.912C115 16.08 114.676 16.2 114.364 16.272C114.076 16.344 113.836 16.38 113.644 16.38C113.5 16.38 113.356 16.38 113.212 16.38C113.068 16.38 112.912 16.368 112.744 16.344C112.432 16.32 111.988 16.116 111.412 15.732C110.836 15.324 110.344 14.784 109.936 14.112C109.744 13.728 109.576 13.32 109.432 12.888C109.288 12.432 109.168 11.928 109.072 11.376C108.976 10.824 108.904 10.2 108.856 9.504C108.808 8.808 108.808 8.004 108.856 7.092L112.312 7.344ZM124.054 6.48C124.774 6.528 125.338 6.588 125.746 6.66C126.154 6.732 126.454 6.804 126.646 6.876C126.886 6.972 127.03 7.056 127.078 7.128C127.102 7.104 127.114 7.2 127.114 7.416C127.114 7.608 127.114 7.908 127.114 8.316C127.114 8.724 127.102 9.312 127.078 10.08L130.21 10.152L130.534 6.804C130.942 6.516 131.446 6.384 132.046 6.408C132.67 6.408 133.186 6.492 133.594 6.66C133.498 7.308 133.414 7.956 133.342 8.604C133.294 9.156 133.246 9.756 133.198 10.404C133.15 11.052 133.138 11.652 133.162 12.204C133.21 13.044 133.33 13.788 133.522 14.436C133.714 15.06 133.942 15.588 134.206 16.02C134.47 16.524 134.794 16.956 135.178 17.316C134.986 17.652 134.662 17.892 134.206 18.036C133.774 18.18 133.414 18.216 133.126 18.144C132.838 18.072 132.49 17.904 132.082 17.64C131.698 17.376 131.374 17.004 131.11 16.524C130.822 15.996 130.594 15.348 130.426 14.58C130.282 13.788 130.198 12.96 130.174 12.096L126.97 12.348L126.682 18L124.702 18.288L124.054 6.48Z" fill="white"/>
</svg>
